<?xml version="1.0" standalone="no"?>
<svg viewBox="0 0 200 200" xmlns="http://www.w3.org/2000/svg">
  <path fill="#333333" d="M39.3,-69.7C50.2,-61.8,57.9,-49.8,65.1,-37.5C72.3,-25.2,79,-12.6,81.9,1.7C84.8,15.9,83.8,31.9,76.8,44.5C69.8,57.1,56.8,66.5,43,73.2C29.2,80,14.6,84.2,0.6,83.1C-13.3,82,-26.7,75.6,-38.4,67.7C-50.2,59.8,-60.3,50.2,-66.9,38.7C-73.5,27.1,-76.5,13.6,-76,0.3C-75.5,-13,-71.6,-26,-65.8,-39C-60.1,-52,-52.5,-64.8,-41.2,-72.5C-29.9,-80.2,-15,-82.6,-0.4,-82C14.2,-81.3,28.4,-77.5,39.3,-69.7Z" transform="translate(100 100)" />
</svg>
